<svg width="51" height="52" viewBox="0 0 51 52" fill="none" xmlns="http://www.w3.org/2000/svg">
<path d="M22.6025 2.79711C23.3977 -0.166143 27.6023 -0.16614 28.3975 2.79711L32.1877 16.9207C32.4587 17.9309 33.2363 18.7269 34.2397 19.0216L48.1995 23.1216C51.0723 23.9653 51.0723 28.0347 48.1995 28.8784L34.2397 32.9784C33.2363 33.2731 32.4587 34.0691 32.1877 35.0793L28.3975 49.2029C27.6023 52.1661 23.3977 52.1661 22.6025 49.2029L18.8123 35.0793C18.5413 34.0691 17.7637 33.2731 16.7603 32.9784L2.80054 28.8784C-0.0722737 28.0347 -0.0722632 23.9653 2.80055 23.1216L16.7603 19.0216C17.7637 18.7269 18.5413 17.9309 18.8123 16.9207L22.6025 2.79711Z" fill="white"/>
</svg>
